<svg xmlns="http://www.w3.org/2000/svg" width="552" height="544" viewBox="0 0 414 408" preserveAspectRatio="xMidYMid meet"><style><![CDATA[.B{stroke:#280b0b}.C{stroke-width:.458}]]></style><path d="M198.548 29.227c-72.588.56-140.304 53.346-160.188 122.936-16.837 54.78-4.334 117.542 32.784 161.323 19.183 22.924 44.408 40.926 72.462 51.245 9.897-11.098 16.492-27.73 24.718-41.144 8.827-15.32-22.944-13.61-29.58-24.637-33.03-23.952-52.54-65.414-48.307-106.225C93.02 135.932 143.273 85.14 200.663 84.54c56.915-3.25 109.358 43.548 116.87 99.298 6.523 41.826-10.122 86.36-43.92 112.268-9.057 10.686-30.076 13.065-35.695 22.585 8.463 15.152 15.922 31.14 26.353 45.013 17.554-3.282 33.724-14.998 48.067-25.703 30.675-24.916 53.374-59.695 61.443-98.568 14.437-63.758-10.712-134.262-62.756-173.994-31.668-25.132-72.17-37.795-112.477-36.212zm5.862 174.65c-29.85-1.328-53.324 32.974-41.096 60.3 4.584 17.733 25.192 25.592 38.45 29.894-16.717 31.43-34.67 62.18-52.068 93.235l108.7.1c-16.53-31.945-35.316-62.69-52.3-94.4 23.753-2.022 45.243-23.167 42.32-47.957-.944-22.772-21.522-41.28-44.005-41.163z"/><g fill="#a7ac93" class="B C"><path d="M150.613 387.13c0-.132 6.673-12.046 14.83-26.474l34.013-61.038c3.025-5.78 3.356-6.64 2.637-6.866-.453-.142-2.558-.585-4.678-.986-12.186-2.3-23.514-9.793-29.547-19.54-8.924-14.417-9.465-31.208-1.468-45.51 5.8-10.354 15.62-17.846 27.844-21.226 2.25-.622 4.597-.795 10.465-.77 6.89.03 7.93.144 11.7 1.29 13.167 4.018 23.582 13.044 28.503 24.702 2.685 6.36 3.52 10.65 3.504 17.985-.012 5.394-.2 7.122-1.185 10.828-3.483 13.124-11.308 22.363-24.2 28.573-4.035 1.944-7.892 3.127-14.294 4.383l-2.63.516.97 1.917c1.387 2.737 10.883 19.756 22.173 39.737l26.095 46.874 3.088 5.845h-53.905c-29.648 0-53.905-.108-53.905-.24z"/><path d="M152.94 383.818l20.136-35.872 28.366-51.214c1.494-2.972 1.54-4.16.17-4.475l-5.1-1.166c-13.594-3.098-24.172-11.004-30.062-22.47-3.447-6.71-4.658-11.326-4.937-18.818-.272-7.312.436-11.7 2.862-17.707 4.143-10.275 11.244-17.8 21.545-22.834 7.217-3.526 9.44-3.996 18.796-3.97 7.13.02 8.124.126 11.7 1.246 4.247 1.334 10.006 4.068 13.207 6.27 3.167 2.18 8.238 7.16 10.462 10.277 2.58 3.616 5.425 9.683 6.682 14.25.824 2.994.983 4.822.986 11.362.004 7.16-.096 8.12-1.228 11.82-5.108 16.686-17.863 27.56-36.722 31.305-2.162.43-3.93.993-3.93 1.253 0 .7 2.456 5.153 20.984 38.14l28.252 50.77 2.637 4.928H151.222z"/></g><path d="M152.218 386.22c0-.128 6.222-11.32 13.827-24.87 34.512-61.496 37.355-66.762 36.865-68.305-.233-.734-1.297-1.172-5.207-2.144-11.017-2.737-17.78-6.39-23.95-12.936-5.154-5.468-8.78-11.956-10.597-18.956-1.183-4.56-1.61-13.13-.882-17.65 1.625-10.07 6.913-19.3 14.91-26.014 3.66-3.075 13.77-8.268 17.577-9.028 3.825-.764 16.81-.618 20.052.226 3.7.963 10.46 3.973 13.677 6.09 3.65 2.4 9.635 8.406 12.044 12.087 2.302 3.517 4.875 9.28 5.887 13.182.492 1.897.693 5.036.693 10.8 0 6.862-.147 8.63-.937 11.28-2.062 6.924-5.362 12.7-10.003 17.51-6.78 7.023-13.537 10.672-25.177 13.592-2.873.72-5.36 1.448-5.526 1.616-.4.404.487 2.033 23.07 42.398l28.2 51.054c0 .16-23.517.3-52.26.3s-52.26-.105-52.26-.233z" fill="#00f" class="B C"/><path d="M153.565 384.506l39.128-70.047c3.427-6.19 7.3-13.472 8.628-16.183 2.358-4.85 2.383-4.943 1.516-5.783-.484-.47-3.25-1.505-6.148-2.3-12.42-3.413-19.417-7.904-26.08-16.74-5.954-7.895-8.812-17.9-8.167-28.593.585-9.703 4.814-19.023 11.86-26.135 3.563-3.596 6.546-5.65 12.662-8.718 7.04-3.533 8.804-3.87 18.89-3.604 7.73.203 8.755.33 11.587 1.416 12.533 4.813 20.177 11.492 25.378 22.176 3.442 7.07 3.95 9.804 3.732 20.078-.152 7.137-.317 8.654-1.223 11.23-3.422 9.728-9.464 17.433-17.927 22.86-3.622 2.322-8.712 4.36-15.687 6.282-3.348.922-6.266 1.842-6.483 2.044-.636.59-1.214-.478 29.59 54.77l19.58 35.184 1.946 3.553H152.707z" fill="navy" class="B C"/><path d="M153.593 385.37c0-.09 4.606-8.394 10.235-18.452l39.733-73.388c0-1.316-1.03-1.835-8.262-4.167-10.522-3.393-15.03-5.985-20.67-11.9-8.38-8.77-12.316-19.44-11.718-31.758.503-10.36 4.192-18.86 11.504-26.5 3.366-3.522 7.232-6.147 13.58-9.222 6.224-3.015 8.446-3.39 18.316-3.104 9.064.263 10.276.56 17.483 4.283 9.864 5.095 16.524 12.66 20.635 23.44l1.53 4.01-.001 9.856c-.001 10.894-.157 11.742-3.318 18.108-2.308 4.646-5 8.235-9.153 12.2-5.86 5.595-9.976 7.706-22.275 11.417-3.29.993-6.143 1.968-6.343 2.167s.13 1.424.73 2.72 11.945 21.866 25.2 45.708l24.385 44.048c.24.623-5.232.698-50.666.698-28.014 0-50.934-.075-50.934-.166z" fill="#0376a7" class="B C"/><ellipse cx="204.917" cy="205.375" rx="195.713" ry="197.088" fill="#a7ffff" fill-opacity=".17" stroke-width=".821" class="B"/></svg>