<?xml version="1.0" encoding="UTF-8" standalone="no"?>
<svg
   xmlns:osb="http://www.openswatchbook.org/uri/2009/osb"
   xmlns:dc="http://purl.org/dc/elements/1.1/"
   xmlns:cc="http://creativecommons.org/ns#"
   xmlns:rdf="http://www.w3.org/1999/02/22-rdf-syntax-ns#"
   xmlns:svg="http://www.w3.org/2000/svg"
   xmlns="http://www.w3.org/2000/svg"
   xmlns:sodipodi="http://sodipodi.sourceforge.net/DTD/sodipodi-0.dtd"
   xmlns:inkscape="http://www.inkscape.org/namespaces/inkscape"
   version="1.0"
   width="40"
   height="40"
   viewBox="0 0 30.000001 30.000001"
   preserveAspectRatio="xMidYMid meet"
   id="svg18"
   sodipodi:docname="IconoOCM40x40.svg"
   inkscape:version="0.92.4 (5da689c313, 2019-01-14)">
  <defs
     id="defs22">
    <linearGradient
       id="linearGradient7360"
       osb:paint="solid">
      <stop
         style="stop-color:#000000;stop-opacity:1;"
         offset="0"
         id="stop7358" />
    </linearGradient>
  </defs>
  <sodipodi:namedview
     pagecolor="#ffffff"
     bordercolor="#666666"
     borderopacity="1"
     objecttolerance="10"
     gridtolerance="10"
     guidetolerance="10"
     inkscape:pageopacity="0"
     inkscape:pageshadow="2"
     inkscape:window-width="1920"
     inkscape:window-height="1057"
     id="namedview20"
     showgrid="false"
     inkscape:zoom="13.088235"
     inkscape:cx="35.323206"
     inkscape:cy="33.30588"
     inkscape:window-x="3832"
     inkscape:window-y="1681"
     inkscape:window-maximized="1"
     inkscape:current-layer="svg18"
     units="px" />
  <metadata
     id="metadata10">
Created by potrace 1.15, written by Peter Selinger 2001-2017
<rdf:RDF>
  <cc:Work
     rdf:about="">
    <dc:format>image/svg+xml</dc:format>
    <dc:type
       rdf:resource="http://purl.org/dc/dcmitype/StillImage" />
    <dc:title></dc:title>
  </cc:Work>
</rdf:RDF>
</metadata>
  <ellipse
     style="fill:#a7ffff;fill-opacity:0.17085428;stroke:#280b0b;stroke-width:0.061943"
     id="path7393"
     cx="15.054733"
     cy="15.031217"
     rx="14.883075"
     ry="14.739815" />
  <path
     id="path12"
     style="fill:#000000;stroke:none;stroke-width:0.00775026"
     d="M 14.555037,1.659668 C 8.7197957,1.701525 3.2760587,5.645874 1.6775951,10.845704 0.32406905,14.938958 1.328952,19.628567 4.312849,22.899903 c 1.5420767,1.712908 3.56904,3.058093 5.824219,3.829102 0.795573,-0.829251 1.326546,-2.072463 1.987793,-3.074708 C 12.834417,22.509685 10.280918,22.63834 9.7474195,21.814454 7.0922769,20.024731 5.5237326,16.92584 5.8641186,13.876465 6.0718378,9.6328315 10.111515,5.8383305 14.724959,5.7934572 c 4.575309,-0.2427828 8.7903,3.2537188 9.394043,7.4194338 0.524342,3.125267 -0.813357,6.453206 -3.530274,8.38916 -0.728115,0.798474 -2.417905,0.976217 -2.869629,1.6875 0.678752,1.129478 1.276839,2.32112 2.112305,3.355958 0.01001,9e-4 0.02082,3.63e-4 0.03077,0.0015 1.401427,-0.251172 2.693215,-1.119425 3.839356,-1.914552 2.465929,-1.861755 4.290782,-4.460601 4.939453,-7.365234 C 29.801546,12.603021 27.779833,7.3355061 23.596053,4.3666993 21.050314,2.4888521 17.795316,1.5414125 14.555037,1.659668 Z"
     inkscape:connector-curvature="0" />
  <path
     style="fill:#0376a7;fill-opacity:1;stroke:#280b0b;stroke-width:0.03817148"
     d="m 10.512788,28.873795 c 0,-0.0073 0.398428,-0.672795 0.885396,-1.478866 2.864725,-4.741944 3.437168,-5.72154 3.437168,-5.881875 0,-0.105465 -0.08897,-0.147039 -0.714689,-0.333949 -0.910244,-0.271905 -1.300117,-0.479681 -1.788172,-0.952978 -0.724887,-0.702969 -1.065412,-1.558069 -1.013633,-2.545366 0.04354,-0.830293 0.362649,-1.511637 0.995123,-2.124756 0.291169,-0.282259 0.625576,-0.492635 1.174873,-0.739115 0.53845,-0.241613 0.730626,-0.27179 1.584438,-0.248807 0.784075,0.0211 0.888904,0.0449 1.5124,0.343253 0.853304,0.408325 1.429403,1.014636 1.785026,1.878639 l 0.13224,0.321284 -6.4e-5,0.789954 c -6.5e-5,0.873106 -0.01354,0.941094 -0.287065,1.451309 -0.199639,0.372394 -0.432505,0.660005 -0.791744,0.977878 -0.506828,0.448467 -0.862976,0.617597 -1.926887,0.915052 -0.284525,0.07955 -0.531441,0.15772 -0.548701,0.173712 -0.01726,0.016 0.01115,0.114148 0.06315,0.218123 0.05199,0.103974 1.033348,1.752524 2.180786,3.663445 1.147438,1.910921 2.096683,3.499589 2.109434,3.530374 0.02068,0.04993 -0.452635,0.05597 -4.382938,0.05597 -2.423365,0 -4.40612,-0.0059 -4.40612,-0.01329 z"
     id="path5898"
     inkscape:connector-curvature="0" />
</svg>
